<svg xmlns="http://www.w3.org/2000/svg" version="1.1" xmlns:xlink="http://www.w3.org/1999/xlink" xmlns:svgjs="http://svgjs.dev/svgjs" width="100%" height="100%" viewBox="0 0 1000 600"><rect width="1000" height="600" x="0" y="0" fill="rgba(255,255,255,0)"/><g><circle r="166.66666666666666" cx="376.3630930582682" cy="398.5854086908584" fill="rgba(243, 4, 4, 0.842)" transform="matrix(0.596099463801621,0,0,0.596099463801621,0,62.403433210325915)"/><path d="M355.6075519046785 356.8858620630237L355.6075519046785 356.8858620630237Q355.6075519046785 368.62311952304333 345.18938989314734 368.62311952304333L345.18938989314734 368.62311952304333L338.64775328125563 368.62311952304333Q335.6326779704249 368.62311952304333 333.96361842335784 366.38873335519554Q332.32147919156614 364.1812675026231 332.0791963540887 360.250901472433Q331.8369135166112 356.32053544224294 329.656367979314 353.0631772939347Q327.47582244201675 349.7788988303513 324.0838627173322 347.8137158152563L324.0838627173322 347.8137158152563Q317.73066831236747 344.12563262254366 307.23174535501045 344.12563262254366Q296.7328223976534 344.12563262254366 288.97977159837444 348.51364401241335Q281.1998004838201 352.9016554022831 276.4618249953719 360.30474210298354L276.4618249953719 360.30474210298354Q267.3896787476044 374.1148638391993 267.3896787476044 397.2124943453847L267.3896787476044 397.2124943453847Q267.3896787476044 438.75054081513304 294.44459559925514 449.4379059794169L294.44459559925514 449.4379059794169Q302.78989333459015 452.66834381244985 310.7313863407961 452.66834381244985L310.7313863407961 452.66834381244985Q325.1337550130679 452.66834381244985 336.0903233301046 447.4727229643219L336.0903233301046 447.4727229643219L341.3936254393336 444.99605395899664Q343.9510553904846 443.86540071743514 345.94315872085497 443.86540071743514Q347.93526205122527 443.86540071743514 349.1466762386126 444.80761175206976Q350.3850107412752 445.7498227867043 352.2425124952691 449.30330440304056Q354.0730939339878 452.8567860193768 354.0730939339878 455.4680566010784Q354.0730939339878 458.0524068675047 352.26943281054446 460.55599618810527Q350.4926920023763 463.08650582398104 347.8275807901242 464.97092789325023L347.8275807901242 464.97092789325023Q343.197286562777 467.98600320408093 336.6556499508853 469.9781065344513L336.6556499508853 469.9781065344513Q324.72995028393876 473.585428781338 308.7931236409764 473.585428781338Q292.85629699801393 473.585428781338 280.3114300797361 467.79756099715405Q267.76656316145824 462.0366135282453 259.25974353447157 451.8068937236411L259.25974353447157 451.8068937236411Q241.73461829026795 430.997490015854 241.73461829026795 397.2124943453847L241.73461829026795 397.2124943453847Q241.73461829026795 363.88514403459504 259.44818574139845 344.01795136144256L259.44818574139845 344.01795136144256Q277.5117172911076 323.5854320675093 309.22384868538074 323.5854320675093L309.22384868538074 323.5854320675093Q326.64129266848323 323.5854320675093 340.0745299908451 331.33848286678835L340.0745299908451 331.33848286678835Q355.6075519046785 340.2221869076289 355.6075519046785 356.8858620630237ZM379.35126997747045 435.38550140572374Q375.28630237090397 426.93252240928757 373.15959746415734 417.3219698560147Q371.03289255741066 407.71141730274167 371.03289255741066 394.60122376368304Q371.03289255741066 381.49103022462447 376.09391182916227 367.95011164116147Q381.1549311009138 354.43611337297375 390.41551955560817 344.5832779822233L390.41551955560817 344.5832779822233Q410.01350907600795 323.77387427443625 441.16031384950037 323.77387427443625L441.16031384950037 323.77387427443625Q474.2723016380878 323.77387427443625 493.11652233077984 345.0678436571783L493.11652233077984 345.0678436571783Q510.99161167356203 365.2042394830835 510.99161167356203 397.67013970506434L510.99161167356203 397.67013970506434Q510.99161167356203 429.86683677429244 491.3128612073365 451.53769057088834L491.3128612073365 451.53769057088834Q482.0253524373668 461.7404900602173 469.0766807899598 467.66295942077767Q456.10108882727764 473.585428781338 442.80245308129213 473.585428781338Q429.50381733530656 473.585428781338 420.13554761951104 470.78571599270947Q410.7672779037156 467.98600320408093 403.06806773498715 462.9249839323294Q395.3419372509834 457.86396466057784 389.3925475751478 450.8646826890065Q383.4162375840369 443.86540071743514 379.35126997747045 435.38550140572374ZM396.6610326994719 397.02405213845776L396.6610326994719 397.02405213845776Q396.6610326994719 407.8998595096686 399.27230328117344 417.6450136393179Q401.8835738628751 427.3901677689672 407.26763691792996 435.0624576224204L407.26763691792996 435.0624576224204Q419.1933365848765 451.8068937236411 440.8641903814723 451.8068937236411L440.8641903814723 451.8068937236411Q462.6427254391693 451.8068937236411 474.4607438450147 435.8162264501281L474.4607438450147 435.8162264501281Q485.33655121622553 421.0638936792778 485.33655121622553 397.5893787592385L485.33655121622553 397.5893787592385Q485.33655121622553 375.43395928768774 474.2723016380878 361.0585109306912L474.2723016380878 361.0585109306912Q462.07739881838853 345.4447280710321 440.97187164257343 345.4447280710321L440.97187164257343 345.4447280710321Q420.620113294466 345.4447280710321 408.5867323664184 360.0086186349555L408.5867323664184 360.0086186349555Q396.6610326994719 374.3033060461262 396.6610326994719 397.02405213845776Z " fill="#ffffff" transform="matrix(0.596099463801621,0,0,0.596099463801621,0,62.403433210325915)"/><path d="M703.4591000565557 359.7822706633554L703.4591000565557 359.7822706633554Q703.4591000565557 367.72880742822895 696.4056373776427 367.72880742822895L696.4056373776427 367.72880742822895L691.9767189513485 367.72880742822895Q689.9354067548672 367.72880742822895 688.8053946461008 366.2160492826223Q687.6936085390887 364.72151713876997 687.5295745233 362.06052088264255Q687.3655405075112 359.3995246265152 685.8892343654132 357.19417841424524Q684.4129282233152 354.97060620022097 682.1164520022737 353.64010807215726L682.1164520022737 353.64010807215726Q677.8151155882596 351.1431458318186 670.7069749040837 351.1431458318186Q663.5988342199078 351.1431458318186 658.3497457146702 354.113984117769Q653.0824312076784 357.08482240371944 649.874654898922 362.09697288615115L649.874654898922 362.09697288615115Q643.7324923077239 371.4469117861056 643.7324923077239 387.0848212912926L643.7324923077239 387.0848212912926Q643.7324923077239 415.2075419981731 662.0496240707926 422.4432646946291L662.0496240707926 422.4432646946291Q667.6996846146246 424.63038490514475 673.0763551321423 424.63038490514475L673.0763551321423 424.63038490514475Q682.8272660706914 424.63038490514475 690.2452487846903 421.11276656656537L690.2452487846903 421.11276656656537L693.8357711302868 419.43597440517004Q695.567241296945 418.67048233148955 696.915965426763 418.67048233148955Q698.2646895565811 418.67048233148955 699.0848596355244 419.30839239288997Q699.923255716222 419.9463024542904 701.1808498372686 422.35213468585755Q702.4202179565608 424.7579669174248 702.4202179565608 426.5258890875916Q702.4202179565608 428.27558525600415 701.199075839023 429.9706034191538Q699.9961597232393 431.68384758405773 698.1917855495639 432.9596677068585L698.1917855495639 432.9596677068585Q695.0569132478247 435.00097990333984 690.6279948215305 436.3497040331578L690.6279948215305 436.3497040331578Q682.5538760443769 438.79198826823364 671.764083005833 438.79198826823364Q660.974289967289 438.79198826823364 652.4809731497866 434.87339789105977Q643.9876563322841 430.97303351564017 638.2282397779261 424.0471528490072L638.2282397779261 424.0471528490072Q626.3631126358787 409.9584534929355 626.3631126358787 387.0848212912926L626.3631126358787 387.0848212912926Q626.3631126358787 364.5210311194727 638.3558217902062 351.07024182480137L638.3558217902062 351.07024182480137Q650.5854689673397 337.23670649328983 672.0556990339016 337.23670649328983L672.0556990339016 337.23670649328983Q683.847922168932 337.23670649328983 692.9426970443262 342.4857949985274L692.9426970443262 342.4857949985274Q703.4591000565557 348.5003755774455 703.4591000565557 359.7822706633554ZM714.212441091591 400.79077461052407L714.212441091591 400.79077461052407Q714.212441091591 392.46149180881025 717.0010193599985 385.517385140423Q719.789597628406 378.5550524702815 724.6559400968033 373.61580599486695L724.6559400968033 373.61580599486695Q734.8442750774554 363.2998890019348 750.3546025703623 363.2998890019348L750.3546025703623 363.2998890019348Q767.7239822422075 363.2998890019348 777.2744071614592 373.61580599486695L777.2744071614592 373.61580599486695Q786.4967640491336 383.54897695095895 786.4967640491336 400.91835662280414L786.4967640491336 400.91835662280414Q786.4967640491336 417.7045042385118 776.0532650439213 428.34848926302135L776.0532650439213 428.34848926302135Q765.8649300632692 438.79198826823364 750.3546025703623 438.79198826823364L750.3546025703623 438.79198826823364Q734.0058789967578 438.79198826823364 724.0909340424201 428.0933252384612L724.0909340424201 428.0933252384612Q714.212441091591 417.6498262332489 714.212441091591 400.79077461052407ZM734.8078230739469 384.47850304042805Q732.420216844134 388.0507993842703 731.3266567388761 392.5526218175817Q730.2330966336183 397.0726702526474 730.2330966336183 401.7203006999932Q730.2330966336183 406.367931147339 731.4906907546648 410.63281555784454Q732.730058873957 414.89769996835 735.2270211142957 418.21483228763213L735.2270211142957 418.21483228763213Q740.7494996458477 425.52345899110526 750.6097665949225 425.52345899110526L750.6097665949225 425.52345899110526Q760.6705195632945 425.52345899110526 765.8649300632692 418.3424142999122L765.8649300632692 418.3424142999122Q770.4761085071063 412.072669696434 770.4761085071063 401.2464246543815L770.4761085071063 401.2464246543815Q770.4761085071063 385.025283093057 759.8321234825968 378.88312050185885L759.8321234825968 378.88312050185885Q755.9317591071773 376.6413222860803 750.391054573871 376.6413222860803Q744.8503500405645 376.6413222860803 741.0228896721621 378.7919904930874Q737.2136553055141 380.9244326983401 734.8078230739469 384.47850304042805ZM821.4724614156299 327.74095957930103L821.4724614156299 419.5635564174501Q821.4724614156299 424.1200568560244 824.6802377243862 424.1200568560244L824.6802377243862 424.1200568560244Q825.7008938226268 424.1200568560244 827.304781977005 423.5368247998869L827.304781977005 423.5368247998869Q830.2573942612011 422.4432646946291 830.8953043226015 422.4432646946291L830.8953043226015 422.4432646946291Q832.3716104646995 422.4432646946291 833.2100065453973 424.3023168735674L833.2100065453973 424.3023168735674L835.1966407366157 428.8588173121417Q835.5793867734559 429.8247954051194 835.5793867734559 430.6449654840628L835.5793867734559 430.6449654840628Q835.5793867734559 432.1212716261609 833.1371025383801 434.23548782965935L833.1371025383801 434.23548782965935Q828.2707600699828 438.2816602191133 820.3971273121264 438.2816602191133L820.3971273121264 438.2816602191133Q806.0350379297402 438.2816602191133 806.0350379297402 419.12613237534697L806.0350379297402 419.12613237534697L806.0350379297402 327.74095957930103Q806.0350379297402 326.0094894126428 807.0556940279808 324.80657329685914Q808.0945761279758 323.58543117932123 809.4979782630566 323.58543117932123L809.4979782630566 323.58543117932123L818.0824250893306 323.58543117932123Q819.5587312314286 323.58543117932123 820.5247093244064 324.80657329685914Q821.4724614156299 326.0094894126428 821.4724614156299 327.74095957930103L821.4724614156299 327.74095957930103ZM865.2330916276974 327.74095957930103L865.2330916276974 419.5635564174501Q865.2330916276974 424.1200568560244 868.4408679364536 424.1200568560244L868.4408679364536 424.1200568560244Q869.4797500364485 424.1200568560244 871.0654121890725 423.5368247998869L871.0654121890725 423.5368247998869Q874.0180244732686 422.4432646946291 874.655934534669 422.4432646946291L874.655934534669 422.4432646946291Q876.1322406767671 422.4432646946291 876.9706367574647 424.3023168735674L876.9706367574647 424.3023168735674L878.9572709486832 428.8588173121417Q879.3400169855233 429.8247954051194 879.3400169855233 430.6449654840628L879.3400169855233 430.6449654840628Q879.3400169855233 432.1212716261609 876.8977327504476 434.23548782965935L876.8977327504476 434.23548782965935Q872.0313902820502 438.2816602191133 864.1577575241938 438.2816602191133L864.1577575241938 438.2816602191133Q849.7956681418077 438.2816602191133 849.7956681418077 419.12613237534697L849.7956681418077 419.12613237534697L849.7956681418077 327.74095957930103Q849.7956681418077 326.0094894126428 850.8163242400483 324.80657329685914Q851.8552063400433 323.58543117932123 853.2586084751241 323.58543117932123L853.2586084751241 323.58543117932123L861.8430553013981 323.58543117932123Q863.3193614434962 323.58543117932123 864.285339536474 324.80657329685914Q865.2330916276974 326.0094894126428 865.2330916276974 327.74095957930103L865.2330916276974 327.74095957930103ZM901.1929930889256 352.5465479668994L901.1929930889256 352.5465479668994Q896.8369786696486 352.5465479668994 893.7567843731725 349.5392576774404L893.7567843731725 349.5392576774404Q890.6765900766962 346.5866453932442 890.6765900766962 342.10304896168714L890.6765900766962 342.10304896168714Q890.6765900766962 337.7470345424101 893.7567843731725 334.66684024593394L893.7567843731725 334.66684024593394Q896.7093966573685 331.7142279617378 901.1929930889256 331.7142279617378L901.1929930889256 331.7142279617378Q908.0459697485413 331.7142279617378 910.7980960134404 338.00219856697026L910.7980960134404 338.00219856697026Q911.6364920941379 339.8612507459086 911.6364920941379 342.10304896168714L911.6364920941379 342.10304896168714Q911.6364920941379 346.5866453932442 908.5562977976617 349.5392576774404L908.5562977976617 349.5392576774404Q905.4761035011855 352.5465479668994 901.1929930889256 352.5465479668994ZM908.6838798099418 369.13220956330986L908.6838798099418 419.5635564174501Q908.6838798099418 424.1200568560244 911.6911700994008 424.1200568560244L911.6911700994008 424.1200568560244Q912.7300521993958 424.1200568560244 914.0058723221965 423.5368247998869L914.0058723221965 423.5368247998869Q916.5028345625353 422.4432646946291 917.395908648496 422.4432646946291L917.395908648496 422.4432646946291Q918.7446327783139 422.4432646946291 919.5830288590115 424.3023168735674L919.5830288590115 424.3023168735674L921.5696630502299 428.7859133051245Q922.0799910993502 429.87947341038233 922.0799910993502 430.8454515033601L922.0799910993502 430.8454515033601Q922.0799910993502 433.59757776825893 917.341230643233 435.96695799631755L917.341230643233 435.96695799631755Q912.8576342116759 438.2816602191133 908.4651677888902 438.2816602191133Q904.0727013661046 438.2816602191133 901.4481571134859 437.3156821261356Q898.823612860867 436.3497040331578 896.9645606819288 434.1079058173792L896.9645606819288 434.1079058173792Q893.2464563240521 429.49672737354206 893.2464563240521 419.12613237534697L893.2464563240521 419.12613237534697L893.2464563240521 369.13220956330986Q893.2464563240521 367.34606139138873 894.2671124222927 366.1249192738508Q895.2877685205334 364.9037771563129 896.7093966573685 364.9037771563129L896.7093966573685 364.9037771563129L905.2938434836425 364.9037771563129Q906.7701496257406 364.9037771563129 907.7179017169641 366.1249192738508Q908.6838798099418 367.34606139138873 908.6838798099418 369.13220956330986L908.6838798099418 369.13220956330986ZM937.1346685483996 369.5149556001501L937.1346685483996 369.5149556001501Q937.1346685483996 364.9037771563129 941.563586974694 364.9037771563129L941.563586974694 364.9037771563129L945.0812053132732 364.9037771563129Q948.6717276588698 364.9037771563129 949.9475477816706 367.6012254159489L949.9475477816706 367.6012254159489Q951.7519219553461 371.4469117861056 953.0277420781468 377.7166563895838L953.0277420781468 377.7166563895838Q958.7871586325047 367.21847937910866 970.1966357306948 364.26586709491255L970.1966357306948 364.26586709491255Q973.7871580762913 363.2998890019348 979.1456025920546 363.2998890019348Q984.4858211060638 363.2998890019348 989.042321544638 365.57813922122193Q993.580595981458 367.8563894405091 996.2051402340768 371.8296578229458L996.2051402340768 371.8296578229458Q1001.0897087042284 379.0653805194018 1001.0897087042284 393.1723058772278L1001.0897087042284 393.1723058772278L1001.0897087042284 432.9596677068585Q1001.0897087042284 434.74581587877964 999.9232445919534 435.96695799631755Q998.7750064814327 437.18810011385546 996.5332082656541 437.18810011385546L996.5332082656541 437.18810011385546L990.2452376604216 437.18810011385546Q987.8211794271001 437.18810011385546 986.6729413165795 435.96695799631755Q985.5064772043044 434.74581587877964 985.5064772043044 432.9596677068585L985.5064772043044 432.9596677068585L985.5064772043044 393.0994018702106Q985.5064772043044 376.6960002913432 973.459090044714 376.6960002913432L973.459090044714 376.6960002913432Q966.4238533675552 376.6960002913432 960.5915328061802 382.60122485973545L960.5915328061802 382.60122485973545Q954.3764662079649 388.94387347023087 954.3764662079649 397.32783427720756L954.3764662079649 397.32783427720756L954.3764662079649 432.9596677068585Q954.3764662079649 434.74581587877964 953.282906102707 435.96695799631755Q952.1893459974491 437.18810011385546 949.9475477816706 437.18810011385546L949.9475477816706 437.18810011385546L943.349735146615 437.18810011385546Q941.1079369308364 437.18810011385546 939.9596988203158 435.96695799631755Q938.7932347080407 434.74581587877964 938.7932347080407 432.9596677068585L938.7932347080407 432.9596677068585L938.7932347080407 393.60972991933096Q938.7932347080407 380.7421726807971 937.9730646290974 375.63889218959395Q937.1346685483996 370.55383770014504 937.1346685483996 369.5149556001501ZM1044.595174891736 425.6510410033854L1044.595174891736 425.6510410033854Q1056.8977260758866 425.6510410033854 1056.8977260758866 417.39466220868877L1056.8977260758866 417.39466220868877Q1056.8977260758866 412.8381617701145 1049.9171674039906 409.7032894683754L1049.9171674039906 409.7032894683754Q1046.9645551197946 408.35456533855734 1043.4651627829694 407.2063272280366Q1039.9839964478988 406.0398631157616 1036.7762201391424 404.45420096313774Q1033.568443830386 402.8503128087596 1030.7798655619786 400.95480862631274Q1027.991287293571 399.0593044438658 1025.94997509709 396.63524621054427L1025.94997509709 396.63524621054427Q1021.7215426900929 391.4955137158325 1021.7215426900929 383.6218809579761L1021.7215426900929 383.6218809579761Q1021.7215426900929 374.0167780334615 1029.7227574602293 368.36671748962937L1029.7227574602293 368.36671748962937Q1036.8308981444052 363.2998890019348 1047.2197191443547 363.2998890019348L1047.2197191443547 363.2998890019348Q1058.3740322179847 363.2998890019348 1065.8649189390007 367.6741294229661L1065.8649189390007 367.6741294229661Q1068.4347851863563 369.20511357032706 1068.4347851863563 371.19174776154546L1068.4347851863563 371.19174776154546Q1068.4347851863563 374.0167780334615 1066.92202704075 377.37036235625214Q1065.4092688951432 380.7421726807971 1063.4044087021705 380.7421726807971Q1061.3813225074437 380.7421726807971 1059.7409823495568 379.9037766000995Q1058.118868193424 379.0653805194018 1056.7883700653606 378.46392246151004Q1055.4760979390512 377.8624644036182 1054.0180177987074 377.4614923650237L1054.0180177987074 377.4614923650237Q1050.8102414899513 376.5137402738002 1048.0763412268066 376.5137402738002Q1045.3606669654164 376.5137402738002 1043.7021008057752 376.89648631064046Q1042.02530864438 377.2792323474807 1040.676584514562 378.11762842817836L1040.676584514562 378.11762842817836Q1037.4141302005428 380.10426261939676 1037.4141302005428 382.9839708965757Q1037.4141302005428 385.8636791737547 1038.7264023268522 387.3946633211156Q1040.0386744531615 388.94387347023087 1042.3533766759574 390.2196935930317Q1044.6498528969987 391.4955137158325 1047.857629205755 392.7895598403876L1047.857629205755 392.7895598403876L1054.783509872388 395.6692681175665Q1063.1674706793647 399.31446846842596 1066.120082963561 402.2670807526221L1066.120082963561 402.2670807526221Q1071.8794995179187 408.15407931926006 1071.8794995179187 415.91835606659066L1071.8794995179187 415.91835606659066Q1071.8794995179187 425.6510410033854 1065.2270088776004 431.9390116086179L1065.2270088776004 431.9390116086179Q1057.8454781671098 438.79198826823364 1044.2671068601585 438.79198826823364L1044.2671068601585 438.79198826823364Q1030.4882495339098 438.79198826823364 1023.5805948690312 433.46999575597886L1023.5805948690312 433.46999575597886Q1020.1723325409777 430.90012950862297 1020.1723325409777 428.8588173121417Q1020.1723325409777 426.7992791139061 1020.9195986129038 425.17716495777364Q1021.6486386830757 423.5368247998869 1022.833328797105 421.33147858761697Q1024.0180189111343 419.12613237534697 1026.0411051058613 419.12613237534697Q1028.0641913005884 419.12613237534697 1030.324215518121 420.9487325507767Q1032.6024657374082 422.7713327262064 1036.575734119845 424.2111868647959Q1040.5490025022818 425.6510410033854 1044.595174891736 425.6510410033854ZM1086.0411028810076 400.79077461052407L1086.0411028810076 400.79077461052407Q1086.0411028810076 392.46149180881025 1088.8296811494151 385.517385140423Q1091.6182594178226 378.5550524702815 1096.48460188622 373.61580599486695L1096.48460188622 373.61580599486695Q1106.672936866872 363.2998890019348 1122.1832643597788 363.2998890019348L1122.1832643597788 363.2998890019348Q1139.552644031624 363.2998890019348 1149.1030689508757 373.61580599486695L1149.1030689508757 373.61580599486695Q1158.32542583855 383.54897695095895 1158.32542583855 400.91835662280414L1158.32542583855 400.91835662280414Q1158.32542583855 417.7045042385118 1147.8819268333377 428.34848926302135L1147.8819268333377 428.34848926302135Q1137.6935918526856 438.79198826823364 1122.1832643597788 438.79198826823364L1122.1832643597788 438.79198826823364Q1105.8527667879284 438.79198826823364 1095.9195958318364 428.0933252384612L1095.9195958318364 428.0933252384612Q1086.0411028810076 417.6498262332489 1086.0411028810076 400.79077461052407ZM1106.6547108651175 384.47850304042805Q1104.2488786335505 388.0507993842703 1103.1553185282926 392.5526218175817Q1102.061758423035 397.0726702526474 1102.061758423035 401.7203006999932Q1102.061758423035 406.367931147339 1103.319352544081 410.63281555784454Q1104.5587206633736 414.89769996835 1107.0556829037123 418.21483228763213L1107.0556829037123 418.21483228763213Q1112.5781614352643 425.52345899110526 1122.438428384339 425.52345899110526L1122.438428384339 425.52345899110526Q1132.4991813527113 425.52345899110526 1137.6935918526856 418.3424142999122L1137.6935918526856 418.3424142999122Q1142.304770296523 412.072669696434 1142.304770296523 401.2464246543815L1142.304770296523 401.2464246543815Q1142.304770296523 385.025283093057 1131.6607852720133 378.88312050185885L1131.6607852720133 378.88312050185885Q1127.7604208965936 376.6413222860803 1122.2197163632873 376.6413222860803Q1116.679011829981 376.6413222860803 1112.8697774633329 378.7919904930874Q1109.0423170949307 380.9244326983401 1106.6547108651175 384.47850304042805ZM1181.1443800349302 431.68384758405773L1181.1443800349302 344.4724291897458Q1181.1443800349302 340.681420824852 1183.8236022928118 339.4056007020512L1183.8236022928118 339.4056007020512Q1184.7166763787723 338.9681766599481 1186.0654005085903 338.9681766599481L1186.0654005085903 338.9681766599481L1215.8649133768663 338.9681766599481Q1228.422628585577 338.9681766599481 1237.2622394364112 344.27194317044854L1237.2622394364112 344.27194317044854Q1248.033806473201 350.61459178094395 1248.033806473201 363.7008610405293L1248.033806473201 363.7008610405293Q1248.033806473201 372.5951498966263 1242.9122999802435 378.5550524702815L1242.9122999802435 378.5550524702815Q1238.2828955346517 383.8041409755191 1231.120076845213 385.2257691123542L1231.120076845213 385.2257691123542L1231.120076845213 385.4809331369144Q1240.925665789025 385.91835717901756 1247.3958964118005 391.1856716860094L1247.3958964118005 391.1856716860094Q1254.7592011205365 397.32783427720756 1254.7592011205365 407.716655277157L1254.7592011205365 407.716655277157Q1254.7592011205365 422.8260107314693 1243.677792053924 430.4627054665198L1243.677792053924 430.4627054665198Q1233.999785122392 437.18810011385546 1217.3958975242272 437.18810011385546L1217.3958975242272 437.18810011385546L1186.0654005085903 437.18810011385546Q1183.4408562559715 437.18810011385546 1182.292618145451 435.54775995596873Q1181.1443800349302 433.9256457998363 1181.1443800349302 431.68384758405773L1181.1443800349302 431.68384758405773ZM1197.0192275629229 352.4736439598822L1197.0192275629229 380.7421726807971Q1206.770138501472 380.7421726807971 1212.6024590628472 380.3594266439569L1212.6024590628472 380.3594266439569Q1222.4627260119219 379.7761945878194 1227.073904455759 375.9669602211713Q1231.6850828995962 372.15772585452316 1231.6850828995962 365.28652319315313Q1231.6850828995962 358.4335465335374 1226.7822884276902 355.462708247587Q1221.8794939557843 352.4736439598822 1212.1468090189896 352.4736439598822L1212.1468090189896 352.4736439598822L1197.0192275629229 352.4736439598822ZM1197.0921315699402 423.5368247998869L1217.268315511947 423.5368247998869Q1231.3752408697733 423.5368247998869 1235.9864193136104 415.53561002975044L1235.9864193136104 415.53561002975044Q1237.7178894802687 412.5829977455543 1237.7178894802687 408.60972936311754Q1237.7178894802687 404.63646098068074 1236.6243293750108 402.2670807526221Q1235.530769269753 399.89770052456345 1233.6717170908146 398.2209083631682Q1231.8126649118763 396.5623422035271 1229.3157026715376 395.57813810879503Q1226.8187404311989 394.5757080123087 1224.0666141663 393.9924759561712L1224.0666141663 393.9924759561712Q1219.2549497031655 393.0994018702106 1214.4615112417855 393.0994018702106L1214.4615112417855 393.0994018702106Q1208.428704661113 393.0994018702106 1201.7033100137774 393.42746990178796L1201.7033100137774 393.42746990178796L1197.0192275629229 393.60972991933096L1197.0921315699402 423.5368247998869ZM1290.7737805870279 327.74095957930103L1290.7737805870279 419.5635564174501Q1290.7737805870279 424.1200568560244 1293.9815568957838 424.1200568560244L1293.9815568957838 424.1200568560244Q1295.0022129940248 424.1200568560244 1296.6061011484026 423.5368247998869L1296.6061011484026 423.5368247998869Q1299.5404874308447 422.4432646946291 1300.1966234939991 422.4432646946291L1300.1966234939991 422.4432646946291Q1301.6547036343432 422.4432646946291 1302.493099715041 424.3023168735674L1302.493099715041 424.3023168735674L1304.4797339062593 428.8588173121417Q1304.8624799430995 429.8247954051194 1304.8624799430995 430.6449654840628L1304.8624799430995 430.6449654840628Q1304.8624799430995 432.1212716261609 1302.4384217097777 434.23548782965935L1302.4384217097777 434.23548782965935Q1297.5538532396263 438.2816602191133 1289.68022048177 438.2816602191133L1289.68022048177 438.2816602191133Q1275.3181310993837 438.2816602191133 1275.3181310993837 419.12613237534697L1275.3181310993837 419.12613237534697L1275.3181310993837 327.74095957930103Q1275.3181310993837 326.0094894126428 1276.3570131993788 324.80657329685914Q1277.3776692976194 323.58543117932123 1278.7810714327002 323.58543117932123L1278.7810714327002 323.58543117932123L1287.3655182589741 323.58543117932123Q1288.8418244010722 323.58543117932123 1289.80780249405 324.80657329685914Q1290.7737805870279 326.0094894126428 1290.7737805870279 327.74095957930103L1290.7737805870279 327.74095957930103ZM1314.7956508991915 400.79077461052407L1314.7956508991915 400.79077461052407Q1314.7956508991915 392.46149180881025 1317.584229167599 385.517385140423Q1320.3728074360065 378.5550524702815 1325.2391499044038 373.61580599486695L1325.2391499044038 373.61580599486695Q1335.427484885056 363.2998890019348 1350.9378123779625 363.2998890019348L1350.9378123779625 363.2998890019348Q1368.3071920498078 363.2998890019348 1377.839390967305 373.61580599486695L1377.839390967305 373.61580599486695Q1387.079973856734 383.54897695095895 1387.079973856734 400.91835662280414L1387.079973856734 400.91835662280414Q1387.079973856734 417.7045042385118 1376.6364748515216 428.34848926302135L1376.6364748515216 428.34848926302135Q1366.4481398708695 438.79198826823364 1350.9378123779625 438.79198826823364L1350.9378123779625 438.79198826823364Q1334.5890888043582 438.79198826823364 1324.6741438500203 428.0933252384612L1324.6741438500203 428.0933252384612Q1314.7956508991915 417.6498262332489 1314.7956508991915 400.79077461052407ZM1335.3910328815473 384.47850304042805Q1333.0034266517341 388.0507993842703 1331.9098665464762 392.5526218175817Q1330.8163064412188 397.0726702526474 1330.8163064412188 401.7203006999932Q1330.8163064412188 406.367931147339 1332.073900562265 410.63281555784454Q1333.313268681557 414.89769996835 1335.8102309218962 418.21483228763213L1335.8102309218962 418.21483228763213Q1341.332709453448 425.52345899110526 1351.1929764025226 425.52345899110526L1351.1929764025226 425.52345899110526Q1361.2537293708947 425.52345899110526 1366.4481398708695 418.3424142999122L1366.4481398708695 418.3424142999122Q1371.0593183147066 412.072669696434 1371.0593183147066 401.2464246543815L1371.0593183147066 401.2464246543815Q1371.0593183147066 385.025283093057 1360.415333290197 378.88312050185885L1360.415333290197 378.88312050185885Q1356.5149689147775 376.6413222860803 1350.9742643814711 376.6413222860803Q1345.4335598481648 376.6413222860803 1341.6060994797626 378.7919904930874Q1337.7968651131146 380.9244326983401 1335.3910328815473 384.47850304042805ZM1424.0423054144485 430.33512345423975L1424.0423054144485 430.33512345423975Q1430.075111995121 427.3825111700436 1436.8369586459653 427.3825111700436Q1443.5988052968096 427.3825111700436 1448.8843458055558 428.6401052910901Q1454.169886314302 429.87947341038233 1458.398318721299 432.5769216700183L1458.398318721299 432.5769216700183Q1467.8758396335334 438.59150224893637 1467.8758396335334 449.41774729098887L1467.8758396335334 449.41774729098887Q1467.8758396335334 460.69964237689885 1457.1042725967436 467.55261903651456L1457.1042725967436 467.55261903651456Q1447.5538476774918 473.58542561718696 1434.1759623898379 473.58542561718696L1434.1759623898379 473.58542561718696Q1420.5246870758692 473.58542561718696 1411.429912200475 467.68020104879463L1411.429912200475 467.68020104879463Q1401.624323256663 461.28287443303634 1401.624323256663 450.25614337168656L1401.624323256663 450.25614337168656Q1401.624323256663 436.8600320822781 1415.785926619752 424.37522088058455L1415.785926619752 424.37522088058455Q1421.2901791495497 419.5635564174501 1427.9608957916225 415.71787004729345L1427.9608957916225 415.71787004729345Q1417.5173967864102 414.77011795606995 1410.1358660759197 408.35456533855734L1410.1358660759197 408.35456533855734Q1401.8794872812232 401.1188426421014 1401.8794872812232 390.3472756053118L1401.8794872812232 390.3472756053118Q1401.8794872812232 377.9900464158983 1411.1747481759148 370.2986736755849L1411.1747481759148 370.2986736755849Q1419.6862909951715 363.2998890019348 1431.4785141302018 363.2998890019348L1431.4785141302018 363.2998890019348Q1444.1638113511926 363.2998890019348 1451.3995340476486 370.17109166330476L1451.3995340476486 370.17109166330476Q1453.641332263427 372.28530786680324 1454.9900563932451 374.9645301246849L1454.9900563932451 374.9645301246849Q1454.9900563932451 369.077531558047 1453.495524249393 362.77133495106017Q1451.9827661037862 356.446912342319 1451.9827661037862 355.2439962265354Q1451.9827661037862 354.02285410899754 1452.4566421493978 353.2755880370713Q1452.948744196764 352.5465479668994 1453.5866542581643 352.1638019300592L1453.5866542581643 352.1638019300592Q1454.5526323511422 351.5805698739217 1455.7555484669256 351.5805698739217L1455.7555484669256 351.5805698739217L1461.2780269984778 351.5805698739217Q1466.6000195107326 351.5805698739217 1466.6000195107326 366.38008329841097L1466.6000195107326 366.38008329841097Q1466.6000195107326 378.24521044045844 1461.8430330528608 388.2330594018133L1461.8430330528608 388.2330594018133Q1461.9888410668955 389.63646153689416 1461.9888410668955 391.9511637596899Q1461.9888410668955 394.26586598248565 1460.9499589669003 397.32783427720756Q1459.9293028686598 400.4080285736838 1458.2342847055102 403.06902482981116Q1456.5392665423606 405.7300210859386 1454.3156943283361 407.9718193017171Q1452.1103481160662 410.21361751749566 1449.6498378792362 412.12734770169686Q1447.1711016406516 414.0593038876524 1444.674139400313 415.6631920420305L1444.674139400313 415.6631920420305Q1430.640118049504 424.55748089812755 1427.8879917846052 426.78105311215177Q1425.1358655197064 428.98639932442177 1424.0423054144485 430.33512345423975ZM1421.1079191320068 400.57206258947247Q1423.276813340768 402.4675667719194 1426.1929736214556 403.45177086665143Q1429.1091339021432 404.45420096313774 1432.408040219671 404.45420096313774Q1435.7069465371987 404.45420096313774 1438.4590728020976 403.45177086665143Q1441.2111990669964 402.4675667719194 1443.325415270495 400.53561058596387L1443.325415270495 400.53561058596387Q1447.8272377038065 396.5076641982642 1447.8272377038065 390.1650155877688L1447.8272377038065 390.1650155877688Q1447.8272377038065 383.676558963239 1442.8150872213746 379.9766806071167L1442.8150872213746 379.9766806071167Q1438.4043947968348 376.6960002913432 1431.9341641740593 376.6960002913432L1431.9341641740593 376.6960002913432Q1421.6729251863899 376.6960002913432 1417.7725608109704 384.3326950263937L1417.7725608109704 384.3326950263937Q1416.478514686415 386.8296572667324 1416.478514686415 390.1285635842602Q1416.478514686415 393.42746990178796 1417.699656803953 396.0520141544068Q1418.920798921491 398.6765584070256 1421.1079191320068 400.57206258947247ZM1418.0277248355305 442.1820245945329L1418.0277248355305 442.1820245945329Q1415.658344607472 444.87947285416885 1415.658344607472 448.1419271681881Q1415.658344607472 451.40438148220727 1417.26223276185 453.71908370500296Q1418.8478949144737 456.0337859277987 1421.490665168847 457.5647700751597L1421.490665168847 457.5647700751597Q1426.5392676547872 460.44447835233865 1434.1759623898379 460.44447835233865L1434.1759623898379 460.44447835233865Q1446.2233495494283 460.44447835233865 1450.9621100055456 454.4845757786835L1450.9621100055456 454.4845757786835Q1452.4930941529065 452.4979415874651 1452.4930941529065 449.49065129800607Q1452.4930941529065 446.48336100854704 1450.5975899704595 444.36914480504856Q1448.720311789767 442.2549286015501 1445.895281517851 441.08846448927505L1445.895281517851 441.08846448927505Q1441.2111990669964 439.17473430507386 1433.7203123459803 439.17473430507386L1433.7203123459803 439.17473430507386Q1422.1832532355102 439.17473430507386 1418.0277248355305 442.1820245945329Z " fill="#000000" transform="matrix(0.596099463801621,0,0,0.596099463801621,0,62.403433210325915)"/></g></svg>